<?xml version="1.0" encoding="UTF-8"?>
<svg id="Calque_1" xmlns="http://www.w3.org/2000/svg" version="1.1" xmlns:xlink="http://www.w3.org/1999/xlink" viewBox="0 0 2000 2000">
  <!-- Generator: Adobe Illustrator 29.1.0, SVG Export Plug-In . SVG Version: 2.1.0 Build 142)  -->
  <defs>
    <style>
      .st0 {
        fill: #080d00;
      }

      .st1 {
        fill: url(#Dégradé_sans_nom_641);
      }

      .st2 {
        fill: url(#Dégradé_sans_nom_115);
      }

      .st3 {
        opacity: .4;
      }

      .st4 {
        fill: url(#Dégradé_sans_nom_642);
      }

      .st5 {
        fill: url(#Dégradé_sans_nom_122);
      }

      .st6 {
        fill: url(#Dégradé_sans_nom_64);
      }

      .st7 {
        fill: url(#Dégradé_sans_nom_116);
      }
    </style>
    <linearGradient id="Dégradé_sans_nom_64" data-name="Dégradé sans nom 64" x1="1724.3" y1="1585.4" x2="367.8" y2="46.9" gradientUnits="userSpaceOnUse">
      <stop offset="0" stop-color="#fbe878"/>
      <stop offset=".3" stop-color="#61420f"/>
      <stop offset=".6" stop-color="#f9ee9e"/>
      <stop offset=".7" stop-color="#d4c174"/>
      <stop offset=".8" stop-color="#6a4a11"/>
      <stop offset=".9" stop-color="#827543"/>
    </linearGradient>
    <linearGradient id="Dégradé_sans_nom_641" data-name="Dégradé sans nom 64" x1="1721" y1="1588.2" x2="364.5" y2="49.7" xlink:href="#Dégradé_sans_nom_64"/>
    <linearGradient id="Dégradé_sans_nom_122" data-name="Dégradé sans nom 122" x1="319.3" y1="992.7" x2="1681.2" y2="992.7" gradientUnits="userSpaceOnUse">
      <stop offset="0" stop-color="#594a20"/>
      <stop offset="0" stop-color="#f2ba2c"/>
      <stop offset=".2" stop-color="#a66d1b"/>
      <stop offset=".4" stop-color="#a6661a"/>
      <stop offset=".5" stop-color="#dece94"/>
      <stop offset=".6" stop-color="#cc9c49"/>
      <stop offset=".8" stop-color="#bf7d19"/>
      <stop offset="1" stop-color="#c0b67f"/>
    </linearGradient>
    <linearGradient id="Dégradé_sans_nom_642" data-name="Dégradé sans nom 64" x1="224.5" y1="1824.5" x2="1702.3" y2="-264.4" xlink:href="#Dégradé_sans_nom_64"/>
    <linearGradient id="Dégradé_sans_nom_115" data-name="Dégradé sans nom 115" x1="863.1" y1="2114.2" x2="1109.6" y2="411.4" gradientUnits="userSpaceOnUse">
      <stop offset="0" stop-color="#3d3216"/>
      <stop offset="0" stop-color="#e5b028"/>
      <stop offset=".2" stop-color="#bf7d1f"/>
      <stop offset=".4" stop-color="#8c5616"/>
      <stop offset=".5" stop-color="#cdac6b"/>
      <stop offset=".6" stop-color="#b78c43"/>
      <stop offset=".8" stop-color="#ad7218"/>
      <stop offset="1" stop-color="#aba372"/>
    </linearGradient>
    <linearGradient id="Dégradé_sans_nom_116" data-name="Dégradé sans nom 116" x1="1000.2" y1="1633.7" x2="1000.2" y2="1167" gradientUnits="userSpaceOnUse">
      <stop offset="0" stop-color="#190f00"/>
      <stop offset="1" stop-color="#1d1d1b" stop-opacity="0"/>
    </linearGradient>
  </defs>
  <g>
    <g>
      <path class="st6" d="M1789.3,259.9S1489.1,0,1000.2,0,211.1,259.9,211.1,259.9c0,0-267.8,1190.7,789.1,1740.1,1056.9-549.5,789.1-1740.1,789.1-1740.1ZM1000.2,1969.9C-24.8,1437,234.9,282.2,234.9,282.2c0,0,291.2-252,765.3-252s765.3,252,765.3,252c0,0,259.7,1154.8-765.3,1687.7Z"/>
      <path class="st1" d="M1533.6,205.5c-114.8-54.2-300.5-118.7-533.3-118.7s-418.6,64.6-533.3,118.7c-88.7,41.9-150.1,84.2-178.6,105.6-13.2,75.1-47.5,320.5,4.2,606.6,36,198.9,106.1,378.7,208.4,534.4,121.4,184.7,289.2,336.5,499.3,451.7,210.1-115.2,378-267,499.3-451.7,102.3-155.7,172.4-335.5,208.4-534.4,51.8-286.2,17.4-531.5,4.2-606.6-28.6-21.4-89.9-63.7-178.6-105.6Z"/>
    </g>
    <path class="st5" d="M1504.3,257.9c-108.5-51.2-284-112.2-504.1-112.2s-395.7,61-504.1,112.2c-73.5,34.7-126.9,69.6-156.9,91.1-13.1,80.8-40.4,306.1,6.3,564.5,34.2,188.9,100.7,359.5,197.6,507.1,111.7,170,265.4,310.8,457.1,419,191.7-108.1,345.4-249,457.1-419,97-147.5,163.4-318.1,197.6-507.1,46.8-258.5,19.4-483.7,6.3-564.5-30-21.6-83.4-56.4-156.9-91.1Z"/>
    <path class="st4" d="M1776.2,272.1S1481,16.6,1000.2,16.6,224.2,272.1,224.2,272.1c0,0-263.4,1170.9,776,1711.3C2039.6,1443.1,1776.2,272.1,1776.2,272.1ZM1708,917.7c-36,198.9-106.1,378.7-208.4,534.4-121.4,184.7-289.2,336.5-499.3,451.7-210.1-115.2-378-267-499.3-451.7-102.3-155.7-172.4-335.5-208.4-534.4-51.8-286.1-17.4-531.5-4.2-606.6,28.5-21.3,89.9-63.7,178.6-105.6,114.8-54.2,300.5-118.7,533.3-118.7s418.6,64.6,533.3,118.7c88.7,41.9,150.1,84.2,178.6,105.6,13.2,75,47.5,320.4-4.2,606.6Z"/>
  </g>
  <g>
    <path class="st0" d="M1002.1,865.4c-49.9,0-98,2.1-144.4,5.7,7.1,33,16.4,69.5,27.7,101.8,37.8-2.4,76.7-3.7,116.6-3.7,163.1,0,308.8,21.9,427.9,49.6-9.5,33-20.4,65.2-32.4,96.6-28.6,74.7-64.3,144.4-106.6,208.7-74.1,112.5-171.1,210.8-288.8,292.6-117.7-81.9-214.6-180.1-288.8-292.6-42.3-64.3-78-134-106.7-208.7-36.2,7.7-70.1,16.1-101.6,24.7,32.1,86.3,72.7,166.9,121.6,241.1,93.8,142.4,219.9,263.1,375.5,359.6,155.6-96.5,281.7-217.3,375.5-359.6,48.8-74.2,89.5-154.8,121.6-241.1,11.5-30.9,21.9-62.6,31.2-95,9.1-31.5,17.1-63.7,24.1-96.6-30.5-9.4-64-18.8-100.2-27.6-123.3-30.4-277.8-55.4-452.2-55.4Z"/>
    <path class="st0" d="M1575.5,412.1c-26.9-17.1-63.9-38.5-109.2-59.7-99.8-46.8-261.4-102.7-464.2-102.7s-364.3,55.8-464.1,102.7c-45.3,21.2-82.3,42.7-109.2,59.7-11.5,90.6-23.1,252.1,3.5,438.1,2.7,18.8,5.8,37.8,9.3,57.1,2.5,13.8,5.2,27.6,8.2,41.2,7,32.9,15,65.1,24,96.6,30.9-9,64.5-17.9,100.5-26.3,32.1-7.5,66.3-14.5,102.1-20.8,10,33.7,21.4,66.4,34.2,98,24.7,61,54.5,118.1,89.4,170.9,53.9,81.9,121.7,155.7,202.1,220.2,80.4-64.5,148.2-138.3,202.1-220.2,34.8-52.9,64.7-110,89.4-170.9-34.2-5.4-69.8-10-106.9-13.7-19.9,45.2-42.9,87.8-69.2,127.6-32.7,49.6-71.3,96.1-115.5,139-44.1-42.9-82.8-89.4-115.4-139-26.2-39.8-49.3-82.4-69.2-127.6-25.1-57.1-45.1-118.3-59.9-183.2-1.3-5.8-2.5-11.4-3.6-16.9,0,0,0,0,0,0-2.1-10.2-4.2-20.5-6.1-30.8-4.3-23.2-7.8-46.8-10.8-70.6-6.8-55.5-10-112.5-9.7-170.4,65.8-24.4,152.8-46.5,255.7-49,6-.3,12.3-.5,18.9-.5,26.3,0,52.4,1.5,77.9,4.1,2.4.2,4.8.5,7.2.8,2.2.2,4.4.5,6.6.8,10,1.2,19.8,2.5,29.4,4,129.7,19.6,236.3,63.1,257.1,72,.6-36.9-.2-71.2-1.8-101.9-.1,0-.3-.1-.4-.2-80.7-37.9-211.5-83-376-83s-295.2,45.1-376,83c-.1,0-.3.1-.4.2-3.7,70.8-3.3,160,9,257.7,2.9,23.5,6.6,47.5,11,71.8,1.8,9.7,3.6,19.3,5.6,28.8-35.7,6.8-69.6,14.2-101.4,22.1-2.2-10.7-4.3-21.4-6.3-32.2-4.2-22.8-7.6-45.2-10.6-67.3-18.5-139.5-14.3-263.5-6.7-346.5,18-10,36.6-19.5,55.7-28.5,90.3-42.4,236.5-92.9,420-92.9s329.8,50.5,420.1,92.9c19.1,9,37.7,18.5,55.7,28.5,7.5,83.1,11.8,207-6.7,346.5,36.7,9.4,70.4,19.2,100.8,28.9,26.6-186,15-347.4,3.5-438.1Z"/>
  </g>
  <path class="st2" d="M1000.2,1388.2s-520.4,362.4-728.7-221.2c102.9,302.6,313.7,617.2,728.7,833,415-215.8,625.7-530.4,728.7-833-208.2,583.6-728.7,221.2-728.7,221.2Z"/>
  <g class="st3">
    <path class="st7" d="M1000.2,1388.2s-520.4,362.4-728.7-221.2c9.7,28.5,20.3,57.1,32,85.7,115.6,277.8,285.4,380.9,696.6,380.9s581-103.1,696.6-380.9c11.7-28.6,22.3-57.2,32-85.7-208.2,583.6-728.7,221.2-728.7,221.2Z"/>
  </g>
</svg>